<svg width="1839" height="127" viewBox="0 0 1839 127" fill="none" xmlns="http://www.w3.org/2000/svg">
<path d="M1 27.7241C47.8333 7.55748 176.5 -20.6759 316.5 27.7241C491.5 88.2241 901.992 131.12 984 125.224C1290 103.224 1332.72 23.3218 1512 48.7241C1695.5 74.7241 1765.5 56.7241 1799.5 48.7241" stroke="#CED7E9" stroke-width="2" stroke-dasharray="5 5"/>
<g clip-path="url(#clip0_266_12324)">
<path d="M1776.35 51.9646L1772.32 41.6726C1772.09 41.1245 1772.28 40.5025 1772.73 40.2913C1774.95 39.2584 1777.61 40.0236 1779.39 42.2057L1783.9 50.0284L1776.35 51.9646Z" fill="#FF2C5C"/>
<path d="M1777.38 55.955L1778.88 66.9305C1778.94 67.5204 1779.41 67.9736 1779.91 67.9371L1780.54 67.8912C1782.6 67.7401 1784.26 66.0794 1784.67 63.7367L1784.93 53.9942L1777.38 55.955Z" fill="#FF2C5C"/>
<path d="M1781.01 45.0225L1774.3 46.742L1776.35 51.9646L1783.9 50.0284L1781.01 45.0225Z" fill="#E62753"/>
<path d="M1791.93 30.0869C1791.55 28.5936 1792.35 27.0513 1793.8 26.514C1795.87 25.7456 1798.34 24.9883 1799.77 24.6159C1801.73 24.1064 1801.75 24.3175 1803.55 24.2842C1803.82 24.2792 1804.05 24.4554 1804.12 24.7113L1805.19 28.8565C1805.26 29.1124 1805.14 29.3801 1804.91 29.5045C1803.32 30.3491 1803.41 30.5437 1801.44 31.0531C1800.01 31.4255 1797.48 31.9661 1795.3 32.3011C1793.78 32.5352 1792.32 31.5801 1791.93 30.0869Z" fill="#C3D3DB"/>
<path d="M1801.65 67.5093C1801.26 66.016 1802.07 64.4736 1803.52 63.9364C1805.58 63.1679 1808.06 62.4106 1809.49 62.0382C1811.45 61.5288 1811.47 61.7398 1813.27 61.7065C1813.53 61.7016 1813.77 61.8777 1813.83 62.1337L1814.91 66.2788C1814.98 66.5348 1814.86 66.8024 1814.62 66.9268C1813.04 67.7714 1813.12 67.966 1811.16 68.4756C1809.73 68.848 1807.2 69.3885 1805.02 69.7236C1803.49 69.9577 1802.04 69.0025 1801.65 67.5093Z" fill="#C3D3DB"/>
<path d="M1798.49 45.9186L1813.16 42.1092L1789.82 16.2947C1789.32 15.7978 1788.65 15.5967 1788.03 15.7575L1784.19 16.7545C1782.91 17.0884 1782.38 18.7772 1783.17 20.063L1798.49 45.9186Z" fill="#FF2C5C"/>
<path d="M1807.89 36.2764L1794.79 39.6772L1798.49 45.9186L1813.16 42.1092L1807.89 36.2764Z" fill="#E62753"/>
<path d="M1799.68 50.4869L1814.35 46.6775L1806.52 80.5851C1806.32 81.2629 1805.84 81.7646 1805.22 81.9254L1801.38 82.9223C1800.09 83.2562 1798.81 82.0362 1798.87 80.5321L1799.68 50.4869Z" fill="#FF2C5C"/>
<path d="M1824.83 47.6125L1800.19 54.0121C1796.05 55.0859 1791.85 55.888 1787.65 56.4081L1776.93 57.7331C1774.45 58.0399 1772.33 57.0035 1771.88 55.2683C1771.42 53.5332 1772.78 51.593 1775.09 50.6542L1785.1 46.5986C1789.03 45.0066 1793.08 43.6654 1797.22 42.5915L1821.87 36.1919C1825.23 35.3171 1828.71 34.9814 1832 35.2807C1834.83 35.5385 1837.57 36.2687 1838.04 38.0862C1838.51 39.9037 1836.48 41.8755 1834.13 43.4783C1831.4 45.3398 1828.2 46.7377 1824.83 47.6125Z" fill="#E0F3FC"/>
<path d="M1838.04 38.0863C1837.88 37.4466 1837.43 36.942 1836.8 36.545C1836.14 37.7644 1834.74 38.9725 1833.2 40.0223C1830.47 41.8836 1827.27 43.2816 1823.9 44.1564L1799.26 50.556C1795.12 51.6298 1790.92 52.4319 1786.72 52.9519L1776 54.2769C1774.43 54.472 1772.99 54.1231 1772.04 53.3972C1771.78 54.0108 1771.72 54.6523 1771.88 55.2682C1772.33 57.0034 1774.45 58.0398 1776.93 57.733L1787.65 56.408C1791.85 55.8879 1796.05 55.0859 1800.19 54.012L1824.83 47.6126C1828.2 46.7377 1831.4 45.3397 1834.13 43.4785C1836.48 41.8756 1838.51 39.9038 1838.04 38.0863Z" fill="#C3D3DB"/>
<path d="M1827.86 45.3959L1827.02 45.6144C1826.24 45.8174 1823.97 37.0746 1824.75 36.8716L1825.59 36.6531C1826.12 36.5154 1826.68 36.6983 1826.97 37.1096C1828.44 39.1592 1829.14 41.8195 1828.85 44.3266C1828.79 44.8296 1828.39 45.2581 1827.86 45.3959Z" fill="#51C4F5"/>
<path d="M1774.1 55.315C1773.92 55.204 1773.77 55.0209 1773.71 54.7921C1773.59 54.3344 1773.87 53.867 1774.32 53.7483L1784.56 51.0909C1785.01 50.972 1785.48 51.2467 1785.6 51.7043C1785.72 52.1619 1785.44 52.6293 1784.99 52.748L1774.75 55.4055C1774.52 55.4649 1774.29 55.426 1774.1 55.315Z" fill="#E62753"/>
</g>
<defs>
<clipPath id="clip0_266_12324">
<rect width="58.4447" height="58.4447" fill="white" transform="translate(1788.61 8.22461) rotate(30.4433)"/>
</clipPath>
</defs>
</svg>
